<svg id="Layer_21" data-name="Layer 21" xmlns="http://www.w3.org/2000/svg" viewBox="0 0 137.7 54.49">
  <title>processIconXML</title>
  <g>
    <path d="M6,11C6,9.73,6,8.94,5.42,8.94c-1,0-3.84,2-4,2A0.35,0.35,0,0,1,1,10.65,1.17,1.17,0,0,1,1.29,10C4,7.15,5.54,5.63,8.21,2.79a2.08,2.08,0,0,1,1-.79c0.33,0,.33.73,0.33,1.39,0,0.2-.25,14.34-0.25,29.4,0,6.61.08,12.48,0.21,15.39,0.08,2,.38,3.17,1.75,3.37,0.5,0.07.83,0.13,1.13,0.2a0.65,0.65,0,0,1,.67.66c0,0.33-.21.46-0.71,0.46-3.13,0-4.55-.2-4.75-0.2s-2.46.2-5.13,0.2c-0.46,0-.71-0.13-0.71-0.46a0.52,0.52,0,0,1,.58-0.53,9.19,9.19,0,0,0,1.58-.2c1.54-.2,1.88-1.32,2-3.9C6,44.87,6,39.39,6,32.78V11Z" style="fill: none;stroke: #323232;stroke-miterlimit: 10;stroke-width: 2px"/>
    <path d="M18.18,50.86a2.19,2.19,0,0,1,2.21-2.21,2.07,2.07,0,0,1,2.13,2.17A2.17,2.17,0,1,1,18.18,50.86Z" style="fill: none;stroke: #323232;stroke-miterlimit: 10;stroke-width: 2px"/>
    <path d="M40.87,52.71a0.85,0.85,0,0,1-.58-0.94A3.27,3.27,0,0,1,41,50.14c8.34-12,14.55-21.3,14.55-34.25,0-9.64-3.84-12.47-6.63-12.47A4.84,4.84,0,0,0,44.49,6,12.46,12.46,0,0,0,43,12.53c0,0.61-.12,1-0.33,1s-0.29-.27-0.33-0.88-0.25-6.2-.25-8.29a1.21,1.21,0,0,1,.42-1A12.09,12.09,0,0,1,49.83,1c6.3,0,9.42,6.47,9.42,13.62,0,14-9.34,26.42-14.51,33.57-0.21.27-.12,0.47,0.08,0.47h3c0.71,0,5.63-.07,7.13-0.34,3-.47,4.38-2.49,4.92-6.47,0.08-.74.21-1,0.46-1s0.25,0.4.25,0.81c0,1.28-.83,6.74-1.25,9-0.33,1.82-1,2.09-2.71,2.09C48,52.84,42.53,52.71,40.87,52.71Z" style="fill: none;stroke: #323232;stroke-miterlimit: 10;stroke-width: 2px"/>
    <path d="M65.55,50.86a2.19,2.19,0,0,1,2.21-2.21,2.07,2.07,0,0,1,2.13,2.17A2.17,2.17,0,1,1,65.55,50.86Z" style="fill: none;stroke: #323232;stroke-miterlimit: 10;stroke-width: 2px"/>
    <path d="M89.66,51.88A2.26,2.26,0,0,1,89,50c0-3.15.17-6.9,0.29-8.37,0-.67.13-1,0.33-1s0.25,0.2.29,0.94c0,0.4,0,1.14.08,1.54,0.46,4.49,2.17,7.5,6.17,7.5,4.21,0,7.55-3.88,7.55-11.85,0-9-5-12.12-7.71-13-0.79-.27-1.08-0.4-1.08-0.87a1,1,0,0,1,1-.8c2-.6,6.63-3.82,6.63-11.65,0-2.81-1.08-9-6-9-3,0-5.25,2.75-5.25,7.9,0,0.67-.17.8-0.29,0.8S90.7,12,90.66,11.38c-0.17-2.14-.29-5.15-0.29-6.69a1.63,1.63,0,0,1,.54-1.41A11.08,11.08,0,0,1,97.66,1c6.8,0,8.26,6.7,8.26,10a16,16,0,0,1-5.59,12v0.34c2.63,1,6.88,5.09,6.88,12.85,0,9.37-5,17.21-12.47,17.21A9.47,9.47,0,0,1,89.66,51.88Z" style="fill: none;stroke: #323232;stroke-miterlimit: 10;stroke-width: 2px"/>
    <path d="M111.51,50.86a2.19,2.19,0,0,1,2.21-2.21,2.07,2.07,0,0,1,2.13,2.17A2.17,2.17,0,1,1,111.51,50.86Z" style="fill: none;stroke: #323232;stroke-miterlimit: 10;stroke-width: 2px"/>
    <path d="M121.93,50.86a2.19,2.19,0,0,1,2.21-2.21,2.07,2.07,0,0,1,2.13,2.17A2.17,2.17,0,1,1,121.93,50.86Z" style="fill: none;stroke: #323232;stroke-miterlimit: 10;stroke-width: 2px"/>
    <path d="M132.36,50.86a2.19,2.19,0,0,1,2.21-2.21,2.07,2.07,0,0,1,2.13,2.17A2.17,2.17,0,1,1,132.36,50.86Z" style="fill: none;stroke: #323232;stroke-miterlimit: 10;stroke-width: 2px"/>
  </g>
</svg>
