<svg id="Layer_1" data-name="Layer 1" xmlns="http://www.w3.org/2000/svg" viewBox="0 0 205.73 120.46"><title>svgTextAnimationsXml</title><path d="M686.71,57.87c0.14,1.3.4,3.31,1.94,3.82a7.24,7.24,0,0,0,2.23.32c0.18,0,.4,0,0.4.22s-0.11.29-.54,0.29c-0.79,0-4.9-.11-6.23-0.22-0.83-.07-1-0.18-1-0.36s0.07-.18.25-0.25a1.45,1.45,0,0,0,.14-1.3L682.18,41.6l-8.93,18.93c-0.76,1.58-.86,1.91-1.19,1.91s-0.43-.36-1.12-1.66c-0.94-1.76-4-8-4.21-8.35-0.32-.65-4.46-9.54-4.86-10.51l-1.48,17c0,0.58-.07,1.08-0.07,1.69a1.12,1.12,0,0,0,1,1.3,5.4,5.4,0,0,0,1.3.14c0.22,0,.36.07,0.36,0.18s-0.18.32-.54,0.32c-1.33,0-3.17-.11-3.46-0.11s-2.05.11-3,.11c-0.36,0-.61,0-0.61-0.29a0.31,0.31,0,0,1,.36-0.22,4.63,4.63,0,0,0,1.08-.11c1.19-.22,1.26-1.51,1.44-3l2.59-23.4a0.68,0.68,0,0,1,.4-0.72,0.66,0.66,0,0,1,.54.54l11,22.64,10.58-22.61a0.73,0.73,0,0,1,.54-0.58c0.25,0,.36.29,0.43,1Z" transform="translate(-579.03 -34.29)" style="fill:none;stroke:#323232;stroke-miterlimit:10"/><path d="M700,54.66a5.48,5.48,0,0,0-.79-3.31c-0.22-.4-4.39-7.2-5.51-8.75a9.6,9.6,0,0,0-1.84-2.2,2.88,2.88,0,0,0-1.69-.54,0.34,0.34,0,0,1-.4-0.29c0-.11.14-0.22,0.43-0.22,0.58,0,3.31.11,3.38,0.11s1.4-.11,2.74-0.11c0.36,0,.47.11,0.47,0.22s-0.11.22-.4,0.29c-0.5.11-.58,0.29-0.58,0.58a2.79,2.79,0,0,0,.47,1.19c0.47,0.9,5.22,8.53,5.76,9.43,0.58-1.26,4.61-7.85,5.11-8.75a4.1,4.1,0,0,0,.83-1.91c0-.47-0.43-0.47-0.83-0.54s-0.4-.14-0.4-0.29,0.07-.22.43-0.22c0.86,0,1.62.11,2.2,0.11s2.56-.11,3.17-0.11c0.32,0,.43.11,0.43,0.22a0.36,0.36,0,0,1-.43.29,3.12,3.12,0,0,0-1.8.47,5,5,0,0,0-1.33,1.48,94.72,94.72,0,0,0-6.12,10,6.8,6.8,0,0,0-.36,2.84v2.63c0,0.25,0,1.58.07,2.88,0.07,0.86.14,1.48,1.26,1.69a7,7,0,0,0,1.33.14c0.29,0,.4.11,0.4,0.22s-0.11.29-.43,0.29c-1.8,0-4-.11-4.14-0.11s-2.23.11-3.24,0.11c-0.36,0-.5-0.11-0.5-0.29s0.11-.22.36-0.22a3.85,3.85,0,0,0,.9-0.11c0.61-.11.86-0.86,0.94-1.73,0.11-1.3.11-2.59,0.11-2.88V54.66Z" transform="translate(-579.03 -34.29)" style="fill:none;stroke:#323232;stroke-miterlimit:10"/><path d="M592.7,94.07c0,3.46,0,6.3.18,7.81,0.11,1,.32,1.84,1.4,2a15.63,15.63,0,0,0,1.62.14,0.23,0.23,0,0,1,.29.22c0,0.18-.18.29-0.58,0.29-2,0-4.25-.11-4.43-0.11s-2.45.11-3.53,0.11c-0.4,0-.58-0.07-0.58-0.29a0.23,0.23,0,0,1,.29-0.22,5.53,5.53,0,0,0,1.08-.14c0.72-.14.9-0.94,1-2,0.18-1.51.18-4.36,0.18-7.81V78.84c-1.76,0-3.56,0-5.33.07-2.23,0-3.1.29-3.67,1.15a6.31,6.31,0,0,0-.61,1.12,0.4,0.4,0,0,1-.36.36c-0.11,0-.18-0.11-0.18-0.32s0.72-3.46.79-3.74a1.21,1.21,0,0,1,.36-0.68,6.71,6.71,0,0,0,1.58.43c1,0.11,2.41.18,2.84,0.18h13.5a14.39,14.39,0,0,0,2.56-.18c0.54-.07.86-0.18,1-0.18s0.18,0.22.18,0.43c0,1.08-.11,3.56-0.11,4s-0.11.47-.25,0.47-0.25-.11-0.29-0.61c0-.14,0-0.25,0-0.4-0.11-1.08-1-1.91-4.43-2-1.51,0-3,0-4.54-.07V94.07Z" transform="translate(-579.03 -34.29)" style="fill:none;stroke:#323232;stroke-miterlimit:10"/><path d="M608.76,90.22c0-4.75,0-5.62-.07-6.59a1.55,1.55,0,0,0-1.44-1.73,6,6,0,0,0-.86-0.07c-0.25,0-.4-0.07-0.4-0.22s0.11-.25.43-0.25c1.55,0,3.74.11,3.82,0.11,0.32,0,2.77-.11,3.78-0.11a10.18,10.18,0,0,1,5.9,1.37,5.46,5.46,0,0,1,2.16,4.39c0,2-1,4.5-3.82,6.8,2.63,3.24,4.79,5.9,6.62,7.81s2.81,2.05,3.82,2.2c0.25,0,1,.07,1.12.07,0.29,0,.4.11,0.4,0.25s-0.14.25-.65,0.25H627a8.08,8.08,0,0,1-3.28-.43c-1.51-.65-2.59-2.27-4.46-4.68-1.4-1.73-2.84-3.67-3.46-4.43a0.51,0.51,0,0,0-.43-0.22l-3.71,0c-0.14,0-.18,0-0.18.18v0.5a67.47,67.47,0,0,0,.18,6.8c0.11,0.86.22,1.58,1.4,1.73,0.36,0,.76.07,1,0.07s0.47,0.11.47,0.22-0.14.29-.5,0.29c-1.87,0-3.89-.11-4-0.11-0.58,0-2.16.11-3.13,0.11-0.36,0-.5-0.07-0.5-0.29a0.42,0.42,0,0,1,.43-0.22,3.1,3.1,0,0,0,.79-0.07c0.61-.11.83-0.5,0.94-1.37,0.18-1.3.14-4.25,0.14-6.95v-5.4Zm2.77,2.56a0.45,0.45,0,0,0,.18.43,9.23,9.23,0,0,0,3.2.47,4.23,4.23,0,0,0,2.41-.54c1.08-.68,1.8-2.27,1.8-4.57,0-3.92-2.09-6.08-5.29-6.08a9.67,9.67,0,0,0-2.09.18,0.33,0.33,0,0,0-.22.32v9.79Z" transform="translate(-579.03 -34.29)" style="fill:none;stroke:#323232;stroke-miterlimit:10"/><path d="M632.09,90.22c0-4.72,0-5.58-.07-6.55a1.53,1.53,0,0,0-1.37-1.73,6,6,0,0,0-.86-0.07,0.45,0.45,0,0,1-.47-0.22c0-.22.18-0.29,0.54-0.29,0.72,0,1.69.07,3.71,0.11,0.18,0,6.59,0,7.31,0a5,5,0,0,0,1.4-.18,1.09,1.09,0,0,1,.4-0.11c0.07,0,.14.07,0.14,0.25s-0.22.72-.29,1.62c0,0.61-.07,1.19-0.11,1.87,0,0.32-.07.54-0.25,0.54s-0.25-.14-0.25-0.4a3.45,3.45,0,0,0-.25-1.15c-0.22-.72-0.54-1-2.34-1.08-0.47,0-4-.07-4.1-0.07S635,82.8,635,83v8.17c0,0.22,0,.36.22,0.36,0.43,0,4.1,0,4.86-.11a2,2,0,0,0,1.66-.54,0.48,0.48,0,0,1,.4-0.29c0.07,0,.14,0,0.14.22s-0.14.86-.25,1.91-0.11,1.73-.14,2.2c0,0.29-.11.4-0.25,0.4s-0.22-.22-0.22-0.47a4,4,0,0,0-.11-0.86c-0.14-.47-0.36-1-1.73-1.08-0.83-.07-3.74-0.14-4.32-0.14A0.21,0.21,0,0,0,635,93v2.63c0,1.12,0,4.28,0,4.9,0.07,1.33.25,2,1,2.34a6.83,6.83,0,0,0,2.63.32,10.72,10.72,0,0,0,2.74-.22c1.08-.32,1.33-1,1.62-2.38,0.07-.36.18-0.5,0.32-0.5s0.22,0.32.22,0.54-0.29,2.52-.4,3.13-0.4.79-1.58,0.79c-2.38,0-3.38-.07-4.64-0.07s-2.92-.11-4.25-0.11c-0.83,0-1.51.11-2.38,0.11-0.32,0-.5-0.07-0.5-0.25a0.29,0.29,0,0,1,.32-0.25,2.7,2.7,0,0,0,.72-0.11c0.65-.14,1.08-0.61,1.15-2.84,0-1.22.07-2.7,0.07-5.44v-5.4Z" transform="translate(-579.03 -34.29)" style="fill:none;stroke:#323232;stroke-miterlimit:10"/><path d="M650.84,90.22c0-4.72,0-5.58-.07-6.55a1.53,1.53,0,0,0-1.37-1.73,6,6,0,0,0-.86-0.07,0.45,0.45,0,0,1-.47-0.22c0-.22.18-0.29,0.54-0.29,0.72,0,1.69.07,3.71,0.11,0.18,0,6.59,0,7.31,0a5,5,0,0,0,1.4-.18,1.09,1.09,0,0,1,.4-0.11c0.07,0,.14.07,0.14,0.25s-0.22.72-.29,1.62c0,0.61-.07,1.19-0.11,1.87,0,0.32-.07.54-0.25,0.54s-0.25-.14-0.25-0.4a3.45,3.45,0,0,0-.25-1.15c-0.22-.72-0.54-1-2.34-1.08-0.47,0-4-.07-4.1-0.07s-0.18.07-.18,0.29v8.17c0,0.22,0,.36.22,0.36,0.43,0,4.1,0,4.86-.11a2,2,0,0,0,1.66-.54,0.48,0.48,0,0,1,.4-0.29c0.07,0,.14,0,0.14.22s-0.14.86-.25,1.91-0.11,1.73-.14,2.2c0,0.29-.11.4-0.25,0.4s-0.22-.22-0.22-0.47a4,4,0,0,0-.11-0.86c-0.14-.47-0.36-1-1.73-1.08-0.83-.07-3.74-0.14-4.32-0.14a0.21,0.21,0,0,0-.25.25v2.63c0,1.12,0,4.28,0,4.9,0.07,1.33.25,2,1,2.34a6.83,6.83,0,0,0,2.63.32,10.72,10.72,0,0,0,2.74-.22c1.08-.32,1.33-1,1.62-2.38,0.07-.36.18-0.5,0.32-0.5s0.22,0.32.22,0.54-0.29,2.52-.4,3.13-0.4.79-1.58,0.79c-2.38,0-3.38-.07-4.64-0.07s-2.92-.11-4.25-0.11c-0.83,0-1.51.11-2.38,0.11-0.32,0-.5-0.07-0.5-0.25a0.29,0.29,0,0,1,.32-0.25,2.7,2.7,0,0,0,.72-0.11c0.65-.14,1.08-0.61,1.15-2.84,0-1.22.07-2.7,0.07-5.44v-5.4Z" transform="translate(-579.03 -34.29)" style="fill:none;stroke:#323232;stroke-miterlimit:10"/><path d="M685.8,91c0.11,0,.22,0,0.22-0.18V90.18c0-4.75,0-5.58-.07-6.55a1.45,1.45,0,0,0-1.4-1.69,7.08,7.08,0,0,0-.9-0.07,0.37,0.37,0,0,1-.43-0.25c0-.22.18-0.25,0.5-0.25,1.51,0,3.64.11,3.78,0.11s2.16-.11,3.24-0.11c0.36,0,.58,0,0.58.25a0.33,0.33,0,0,1-.4.25,4.92,4.92,0,0,0-.72.07c-1,.14-1.12.72-1.19,1.73s0,1.8,0,6.55v5.4c0,3,0,5.29.14,6.59,0.11,0.86.29,1.58,1.22,1.69a8.94,8.94,0,0,0,1.26.11c0.29,0,.47.11,0.47,0.25s-0.18.25-.54,0.25c-1.8,0-3.89-.11-4.07-0.11s-2.23.11-3.2,0.11c-0.36,0-.54-0.07-0.54-0.29s0.11-.22.4-0.22a3.23,3.23,0,0,0,.83-0.07c0.61-.11.79-0.9,0.9-1.73a60.24,60.24,0,0,0,.18-6.48v-3.2a0.21,0.21,0,0,0-.22-0.22H672.73c-0.11,0-.18,0-0.18.22v3.2a61.61,61.61,0,0,0,.18,6.55c0.11,0.79.29,1.51,1.22,1.62a9.86,9.86,0,0,0,1.3.11,0.37,0.37,0,0,1,.43.25c0,0.14-.14.25-0.47,0.25-1.84,0-4-.11-4.14-0.11s-2.3.11-3.24,0.11c-0.36,0-.58-0.07-0.58-0.25s0.07-.25.4-0.25a3.56,3.56,0,0,0,.86-0.11c0.65-.14.79-0.83,0.9-1.62a54.9,54.9,0,0,0,.18-6.66V90.29c0-4.75,0-5.69-.07-6.66S669.2,82,668.16,81.9a9.5,9.5,0,0,0-1-.07,0.34,0.34,0,0,1-.4-0.22c0-.22.18-0.25,0.54-0.25,1.55,0,3.28.11,3.74,0.11,0.14,0,2.23-.11,3.24-0.11,0.36,0,.54.07,0.54,0.25s-0.14.22-.36,0.22a3.13,3.13,0,0,0-.72.07c-0.9.14-1.12,0.76-1.19,1.76s0,1.76,0,6.52v0.65c0,0.18.11,0.18,0.22,0.18h13Z" transform="translate(-579.03 -34.29)" style="fill:none;stroke:#323232;stroke-miterlimit:10"/><path d="M696.09,92.88a12.14,12.14,0,0,1,12.6-12c7.13,0,12.56,4.25,12.56,11.48,0,6.88-5.08,12.49-12.74,12.49C699.69,104.9,696.09,98.35,696.09,92.88Zm21.78,0.43c0-7.24-4.46-11.27-9.39-11.27s-9,3.1-9,9.9c0,7.06,3.92,11.73,10,11.73C711.82,103.68,717.87,102.46,717.87,93.31Z" transform="translate(-579.03 -34.29)" style="fill:none;stroke:#323232;stroke-miterlimit:10"/><path d="M731,94.5c0,4.39.83,6.26,2.2,7.49a6.86,6.86,0,0,0,4.75,1.66,6.08,6.08,0,0,0,4.93-2.09c1.44-1.66,1.76-4.39,1.76-7.52V90.22c0-4.72,0-5.54-.07-6.52s-0.18-1.58-1.33-1.76a8.36,8.36,0,0,0-1-.07,0.32,0.32,0,0,1-.36-0.22c0-.22.18-0.29,0.5-0.29,1.55,0,3.35.11,3.49,0.11s1.73-.11,2.74-0.11c0.36,0,.5.07,0.5,0.25a0.31,0.31,0,0,1-.36.25,4.86,4.86,0,0,0-.65,0c-1,.11-1.15.76-1.22,1.8s0,1.8,0,6.52v3.2c0,3.24-.36,7.13-2.92,9.32a9.34,9.34,0,0,1-6.59,2.16c-1,0-4.39,0-6.73-2.16-1.55-1.44-2.66-3.6-2.66-8.06V90.22c0-4.75,0-5.58-.11-6.55s-0.22-1.58-1.33-1.73a7.15,7.15,0,0,0-.94-0.07,0.34,0.34,0,0,1-.4-0.22c0-.22.14-0.29,0.54-0.29,1.55,0,3.49.11,3.74,0.11s2.41-.11,3.38-0.11c0.4,0,.5.07,0.5,0.25a0.38,0.38,0,0,1-.43.25,7.23,7.23,0,0,0-.79.07c-0.86.11-1,.72-1.08,1.73s0,1.8,0,6.55V94.5Z" transform="translate(-579.03 -34.29)" style="fill:none;stroke:#323232;stroke-miterlimit:10"/><path d="M753.55,104.11c-0.47-.22-0.47-0.36-0.47-1.22,0-1.66.11-2.88,0.14-3.38,0-.32.11-0.5,0.29-0.5s0.25,0.11.25,0.36a4.48,4.48,0,0,0,.11,1.08c0.47,2.34,2.59,3.24,4.68,3.24,3,0,4.43-2.05,4.43-3.85,0-2.05-.94-3.31-3.56-5.44L758,93.28c-3.46-2.77-4.18-4.68-4.18-6.8,0-3.31,2.63-5.54,6.66-5.54a12.6,12.6,0,0,1,2.92.29,6,6,0,0,0,1.22.18c0.25,0,.32.07,0.32,0.22s-0.14,1.4-.14,3.49c0,0.54-.07.76-0.25,0.76s-0.22-.14-0.25-0.4a4.82,4.82,0,0,0-.43-1.69c-0.18-.32-1-1.69-4-1.69-2.16,0-3.78,1.3-3.78,3.46,0,1.69.86,2.74,3.85,5l0.83,0.65c3.74,2.88,4.72,4.79,4.72,7.34a6.32,6.32,0,0,1-2.74,5.11,9,9,0,0,1-4.86,1.26A10.19,10.19,0,0,1,753.55,104.11Z" transform="translate(-579.03 -34.29)" style="fill:none;stroke:#323232;stroke-miterlimit:10"/><path d="M772.77,90.22c0-4.72,0-5.58-.07-6.55a1.53,1.53,0,0,0-1.37-1.73,6,6,0,0,0-.86-0.07,0.45,0.45,0,0,1-.47-0.22c0-.22.18-0.29,0.54-0.29,0.72,0,1.69.07,3.71,0.11,0.18,0,6.59,0,7.31,0a5,5,0,0,0,1.4-.18,1.09,1.09,0,0,1,.4-0.11c0.07,0,.14.07,0.14,0.25s-0.22.72-.29,1.62c0,0.61-.07,1.19-0.11,1.87,0,0.32-.07.54-0.25,0.54s-0.25-.14-0.25-0.4a3.45,3.45,0,0,0-.25-1.15c-0.22-.72-0.54-1-2.34-1.08-0.47,0-4-.07-4.1-0.07s-0.18.07-.18,0.29v8.17c0,0.22,0,.36.22,0.36,0.43,0,4.1,0,4.86-.11a2,2,0,0,0,1.66-.54,0.48,0.48,0,0,1,.4-0.29c0.07,0,.14,0,0.14.22s-0.14.86-.25,1.91-0.11,1.73-.14,2.2c0,0.29-.11.4-0.25,0.4s-0.22-.22-0.22-0.47A4,4,0,0,0,782,94c-0.14-.47-0.36-1-1.73-1.08-0.83-.07-3.74-0.14-4.32-0.14a0.21,0.21,0,0,0-.25.25v2.63c0,1.12,0,4.28,0,4.9,0.07,1.33.25,2,1,2.34a6.83,6.83,0,0,0,2.63.32,10.72,10.72,0,0,0,2.74-.22c1.08-.32,1.33-1,1.62-2.38,0.07-.36.18-0.5,0.32-0.5s0.22,0.32.22,0.54-0.29,2.52-.4,3.13-0.4.79-1.58,0.79c-2.38,0-3.38-.07-4.64-0.07s-2.92-.11-4.25-0.11c-0.83,0-1.51.11-2.38,0.11-0.32,0-.5-0.07-0.5-0.25a0.29,0.29,0,0,1,.32-0.25,2.7,2.7,0,0,0,.72-0.11c0.65-.14,1.08-0.61,1.15-2.84,0-1.22.07-2.7,0.07-5.44v-5.4Z" transform="translate(-579.03 -34.29)" style="fill:none;stroke:#323232;stroke-miterlimit:10"/><path d="M602.06,129.73c0-5.62,0-6.62-.07-7.77s-0.36-1.8-1.55-2.05a6.75,6.75,0,0,0-1.22-.11,0.25,0.25,0,0,1-.29-0.22c0-.22.18-0.29,0.58-0.29,1.62,0,3.78.11,4.07,0.11,0.79,0,2.88-.11,4.54-0.11,4.5,0,6.12,1.51,6.69,2.05a6.56,6.56,0,0,1,1.8,4.72c0,4.68-3.74,8.13-8.85,8.13a5.37,5.37,0,0,1-.76,0,0.34,0.34,0,0,1-.4-0.25c0-.29.22-0.32,1-0.32a5.93,5.93,0,0,0,6.23-6.16,7.43,7.43,0,0,0-2-5.26,6.25,6.25,0,0,0-4.93-1.8,4.42,4.42,0,0,0-1.55.22,0.63,0.63,0,0,0-.29.68v14.79c0,3.46,0,6.3.18,7.81,0.11,1,.32,1.84,1.4,2a15.64,15.64,0,0,0,1.62.14,0.23,0.23,0,0,1,.29.22c0,0.18-.18.29-0.58,0.29-2,0-4.25-.11-4.43-0.11s-2.38.11-3.46,0.11c-0.4,0-.58-0.07-0.58-0.29a0.23,0.23,0,0,1,.29-0.22,5.54,5.54,0,0,0,1.08-.14c0.72-.14.9-0.94,1-2,0.18-1.51.18-4.36,0.18-7.81v-6.34Z" transform="translate(-579.03 -34.29)" style="fill:none;stroke:#323232;stroke-miterlimit:10"/><path d="M623.37,132.22c0-4.75,0-5.62-.07-6.59a1.55,1.55,0,0,0-1.44-1.73,6,6,0,0,0-.86-0.07c-0.25,0-.4-0.07-0.4-0.22s0.11-.25.43-0.25c1.55,0,3.74.11,3.82,0.11,0.32,0,2.77-.11,3.78-0.11a10.18,10.18,0,0,1,5.9,1.37,5.46,5.46,0,0,1,2.16,4.39c0,2-1,4.5-3.82,6.8,2.63,3.24,4.79,5.9,6.62,7.81s2.81,2.05,3.82,2.2c0.25,0,1,.07,1.12.07,0.29,0,.4.11,0.4,0.25s-0.14.25-.65,0.25h-2.52a8.08,8.08,0,0,1-3.28-.43c-1.51-.65-2.59-2.27-4.46-4.68-1.4-1.73-2.84-3.67-3.46-4.43a0.51,0.51,0,0,0-.43-0.22l-3.71,0c-0.14,0-.18,0-0.18.18v0.5a67.47,67.47,0,0,0,.18,6.8c0.11,0.86.22,1.58,1.4,1.73,0.36,0,.76.07,1,0.07s0.47,0.11.47,0.22-0.14.29-.5,0.29c-1.87,0-3.89-.11-4-0.11-0.58,0-2.16.11-3.13,0.11-0.36,0-.5-0.07-0.5-0.29a0.42,0.42,0,0,1,.43-0.22,3.1,3.1,0,0,0,.79-0.07c0.61-.11.83-0.5,0.94-1.37,0.18-1.3.14-4.25,0.14-6.95v-5.4Zm2.77,2.56a0.45,0.45,0,0,0,.18.43,9.23,9.23,0,0,0,3.2.47,4.23,4.23,0,0,0,2.41-.54c1.08-.68,1.8-2.27,1.8-4.57,0-3.92-2.09-6.08-5.29-6.08a9.67,9.67,0,0,0-2.09.18,0.33,0.33,0,0,0-.22.32v9.79Z" transform="translate(-579.03 -34.29)" style="fill:none;stroke:#323232;stroke-miterlimit:10"/><path d="M644.25,134.88a12.14,12.14,0,0,1,12.6-12c7.13,0,12.56,4.25,12.56,11.48,0,6.88-5.08,12.49-12.74,12.49C647.85,146.9,644.25,140.35,644.25,134.88ZM666,135.31c0-7.24-4.46-11.27-9.39-11.27s-9,3.1-9,9.9c0,7.06,3.92,11.73,10,11.73C660,145.68,666,144.46,666,135.31Z" transform="translate(-579.03 -34.29)" style="fill:none;stroke:#323232;stroke-miterlimit:10"/><path d="M679.57,139.09c0,5.18,0,7.2-1,9.5-0.65,1.55-2.09,3-4.9,4.86-0.4.22-.94,0.61-1.26,0.76a0.33,0.33,0,0,1-.22,0,0.23,0.23,0,0,1-.25-0.18,0.74,0.74,0,0,1,.47-0.47,4.61,4.61,0,0,0,1-.76c2.16-2.05,3.2-3.6,3.2-11.84v-8.78c0-4.75,0-5.58-.07-6.55a1.62,1.62,0,0,0-1.4-1.73,9.65,9.65,0,0,0-1.08-.07,0.27,0.27,0,0,1-.25-0.22c0-.22.18-0.29,0.54-0.29,1.51,0,3.6.11,3.71,0.11s2.27-.11,3.28-0.11c0.36,0,.5.07,0.5,0.29a0.27,0.27,0,0,1-.22.22c-0.22,0-.43,0-0.83.07-0.83.18-1.12,0.72-1.19,1.76s-0.07,1.76-.07,6.52v6.88Z" transform="translate(-579.03 -34.29)" style="fill:none;stroke:#323232;stroke-miterlimit:10"/><path d="M689.79,132.22c0-4.72,0-5.58-.07-6.55a1.53,1.53,0,0,0-1.37-1.73,6,6,0,0,0-.86-0.07,0.45,0.45,0,0,1-.47-0.22c0-.22.18-0.29,0.54-0.29,0.72,0,1.69.07,3.71,0.11,0.18,0,6.59,0,7.31,0a5,5,0,0,0,1.4-.18,1.09,1.09,0,0,1,.4-0.11c0.07,0,.14.07,0.14,0.25s-0.22.72-.29,1.62c0,0.61-.07,1.19-0.11,1.87,0,0.32-.07.54-0.25,0.54s-0.25-.14-0.25-0.4a3.45,3.45,0,0,0-.25-1.15c-0.22-.72-0.54-1-2.34-1.08-0.47,0-4-.07-4.1-0.07s-0.18.07-.18,0.29v8.17c0,0.22,0,.36.22,0.36,0.43,0,4.1,0,4.86-.11a2,2,0,0,0,1.66-.54,0.48,0.48,0,0,1,.4-0.29c0.07,0,.14,0,0.14.22s-0.14.86-.25,1.91-0.11,1.73-.14,2.2c0,0.29-.11.4-0.25,0.4s-0.22-.22-0.22-0.47A4,4,0,0,0,699,136c-0.14-.47-0.36-1-1.73-1.08-0.83-.07-3.74-0.14-4.32-0.14a0.21,0.21,0,0,0-.25.25v2.63c0,1.12,0,4.28,0,4.9,0.07,1.33.25,2,1,2.34a6.83,6.83,0,0,0,2.63.32,10.72,10.72,0,0,0,2.74-.22c1.08-.32,1.33-1,1.62-2.38,0.07-.36.18-0.5,0.32-0.5s0.22,0.32.22,0.54-0.29,2.52-.4,3.13-0.4.79-1.58,0.79c-2.38,0-3.38-.07-4.64-0.07s-2.92-.11-4.25-0.11c-0.83,0-1.51.11-2.38,0.11-0.32,0-.5-0.07-0.5-0.25a0.29,0.29,0,0,1,.32-0.25,2.7,2.7,0,0,0,.72-0.11c0.65-.14,1.08-0.61,1.15-2.84,0-1.22.07-2.7,0.07-5.44v-5.4Z" transform="translate(-579.03 -34.29)" style="fill:none;stroke:#323232;stroke-miterlimit:10"/><path d="M709.56,143.63a11.72,11.72,0,0,1-3.85-9.18,12,12,0,0,1,3.64-8.31c1.94-1.87,4.86-3.2,9.68-3.2a31.32,31.32,0,0,1,4.75.4,31.54,31.54,0,0,0,3.17.4,0.3,0.3,0,0,1,.32.36c0,0.29-.11.61-0.18,1.76s0,2.88-.07,3.31-0.11.68-.29,0.68-0.29-.22-0.29-0.68A4.24,4.24,0,0,0,725,126a10.73,10.73,0,0,0-6.37-1.84c-4,0-5.83,1.12-6.91,2.09-2.34,2.12-2.88,4.72-2.88,7.88a11.26,11.26,0,0,0,11.19,11.23c2.45,0,4.25-.25,5.51-1.48a4.94,4.94,0,0,0,1.19-2.59c0.07-.36.18-0.54,0.4-0.54s0.18,0.25.18,0.5a34.34,34.34,0,0,1-.72,4,1.18,1.18,0,0,1-.83.9,17.37,17.37,0,0,1-5.69.72C715.35,146.9,712.11,145.83,709.56,143.63Z" transform="translate(-579.03 -34.29)" style="fill:none;stroke:#323232;stroke-miterlimit:10"/><path d="M742.1,137.62c0,2.77,0,5.33.18,6.66,0.11,0.86.18,1.37,1.08,1.58a7.13,7.13,0,0,0,1.4.14c0.29,0,.43.11,0.43,0.22s-0.11.29-.47,0.29c-1.84,0-4-.11-4.1-0.11s-2.27.11-3.2,0.11c-0.4,0-.54-0.07-0.54-0.25a0.33,0.33,0,0,1,.4-0.25,5.81,5.81,0,0,0,.79,0c0.68-.11.79-0.54,0.94-1.76s0.14-3.89.14-6.59V124.77c-1.19,0-3.1,0-4.54,0-2.3,0-2.81.4-3.31,1.15a5.64,5.64,0,0,0-.54,1.12c-0.11.25-.18,0.29-0.32,0.29s-0.18-.14-0.18-0.32,0.5-2.59.72-3.56c0.11-.43.22-0.58,0.32-0.58s0.94,0.32,1.58.4c1.26,0.14,2.27.18,2.3,0.18H747a15.49,15.49,0,0,0,2.59-.18,4.29,4.29,0,0,1,.68-0.14,0.29,0.29,0,0,1,.22.32c0,1-.07,3.38-0.07,3.67s-0.14.43-.25,0.43-0.25-.14-0.25-0.43a4.06,4.06,0,0,0,0-.5c-0.14-1.44-.61-1.8-4.25-1.84-1.37,0-2.48,0-3.53,0v12.85Z" transform="translate(-579.03 -34.29)" style="fill:none;stroke:#323232;stroke-miterlimit:10"/><path d="M755,146.11c-0.47-.22-0.47-0.36-0.47-1.22,0-1.66.11-2.88,0.14-3.38,0-.32.11-0.5,0.29-0.5s0.25,0.11.25,0.36a4.48,4.48,0,0,0,.11,1.08c0.47,2.34,2.59,3.24,4.68,3.24,3,0,4.43-2.05,4.43-3.85,0-2.05-.94-3.31-3.56-5.44l-1.44-1.12c-3.46-2.77-4.18-4.68-4.18-6.8,0-3.31,2.63-5.54,6.66-5.54a12.6,12.6,0,0,1,2.92.29,6,6,0,0,0,1.22.18c0.25,0,.32.07,0.32,0.22s-0.14,1.4-.14,3.49c0,0.54-.07.76-0.25,0.76s-0.22-.14-0.25-0.4a4.83,4.83,0,0,0-.43-1.69c-0.18-.32-1-1.69-4-1.69-2.16,0-3.78,1.3-3.78,3.46,0,1.69.86,2.74,3.85,5l0.83,0.65c3.74,2.88,4.72,4.79,4.72,7.34a6.32,6.32,0,0,1-2.74,5.11,9,9,0,0,1-4.86,1.26A10.19,10.19,0,0,1,755,146.11Z" transform="translate(-579.03 -34.29)" style="fill:none;stroke:#323232;stroke-miterlimit:10"/></svg>