<svg id="Layer_1" data-name="Layer 1" xmlns="http://www.w3.org/2000/svg" viewBox="0 0 123.6 134.1"><defs><style>.cls-1{fill:none;stroke:#323232;stroke-miterlimit:10;stroke-width:3px;}</style></defs><title>treehouseIconXML</title><path class="cls-1" d="M199.9,26c-4.3-2.5-11.3,1.4-15.5,8.8L176.8,48a16.66,16.66,0,0,0,1.2,17.2l0.3,0.3c3.5,5.1,8.3,9.7,9.8,11.4a8.68,8.68,0,0,1,2,3.5A8.61,8.61,0,1,1,173.5,85a10.24,10.24,0,0,1-.3-3.4c0.3-2-.4-5-3.1-8s-8.3,2.8-10.1,8.6l-0.1.3c-1.8,5.9-2.9,11-2.6,11.5a2.77,2.77,0,0,1,.5.9,9.87,9.87,0,0,1-3.9,13.4A9.77,9.77,0,1,1,144.8,91a2.12,2.12,0,0,1,.7-0.3c0.4-.1,1.4-2.6,2.2-5.6s1.6-5.4,1.6-5.4a2.39,2.39,0,0,1,.3-0.9l4.8-17.2-5.1,10.6c-0.7-2-1.6-2.1-3.8-.5-1.3.9-3.5,2.9-4.6,3.5-2,1.4-3.7,4.2-4.6,6a9.73,9.73,0,0,1-2.2,2.8,8.61,8.61,0,1,1-10.8-13.4,8.75,8.75,0,0,1,3.5-1.7c2.2-.5,9.6-5,14-8.1a10.8,10.8,0,0,0,2-1.6l11.8-9-10.3,5.6a15.55,15.55,0,0,0-2.4,0c-3.8.4-7.7,0.9-8.4,1.8a5.56,5.56,0,0,1-1.6,1.4,7.66,7.66,0,0,1-9-12.4,7.87,7.87,0,0,1,4.7-1.4c2.8,0.1,10.1,1.6,16.1.5l1.6-.3c6-1,13.4-6.4,16.2-11.8,0,0,2.9-5,6.3-11.1s3.3-12.8-.5-15.1l-6.9-3.9a14.19,14.19,0,0,0-12.7,0L100,30.35a14.13,14.13,0,0,0-6.3,10.9v52.5a14,14,0,0,0,6.3,10.9l47.7,26.9a14.19,14.19,0,0,0,12.7,0l47.6-26.9a13.71,13.71,0,0,0,6.3-10.9V41.25a14,14,0,0,0-6.3-10.9C207.7,30.45,204.2,28.45,199.9,26Z" transform="translate(-92.2 -0.45)"/></svg>