<svg id="Layer_20" data-name="Layer 20" xmlns="http://www.w3.org/2000/svg" viewBox="0 0 70.6 76.49">
  <title>treehouseIconXML</title>
  <path d="M61,15c-2.41-1.4-6.33.78-8.69,4.93l-4.26,7.4a9.34,9.34,0,0,0,.67,9.64l0.17,0.17a58.16,58.16,0,0,0,5.49,6.39,4.86,4.86,0,0,1,1.12,2A4.83,4.83,0,1,1,46.23,48a5.74,5.74,0,0,1-.17-1.91,5.74,5.74,0,0,0-1.74-4.48c-1.51-1.68-4.65,1.57-5.66,4.82l-0.06.17c-1,3.31-1.63,6.17-1.46,6.45a1.55,1.55,0,0,1,.28.5,5.53,5.53,0,0,1-2.19,7.51,5.48,5.48,0,0,1-5.1-9.7,1.19,1.19,0,0,1,.39-0.17,8.69,8.69,0,0,0,1.23-3.14c0.5-1.63.9-3,.9-3a1.34,1.34,0,0,1,.17-0.5l2.69-9.64-2.86,5.94c-0.39-1.12-.9-1.18-2.13-0.28-0.73.5-2,1.63-2.58,2a9.67,9.67,0,0,0-2.58,3.36,5.45,5.45,0,0,1-1.23,1.57A4.82,4.82,0,1,1,18.09,40a4.91,4.91,0,0,1,2-1c1.23-.28,5.38-2.8,7.85-4.54a6.05,6.05,0,0,0,1.12-.9l6.61-5-5.77,3.14a8.72,8.72,0,0,0-1.35,0c-2.13.22-4.32,0.5-4.71,1a3.11,3.11,0,0,1-.9.78,4.29,4.29,0,0,1-5-7,4.41,4.41,0,0,1,2.63-.78c1.57,0.06,5.66.9,9,.28l0.9-.17a14.37,14.37,0,0,0,9.08-6.61S41.13,16.41,43,13s1.85-7.17-.28-8.46L38.89,2.34a8,8,0,0,0-7.12,0L5,17.42A7.92,7.92,0,0,0,1.5,23.53V53A7.83,7.83,0,0,0,5,59.07L31.77,74.14a8,8,0,0,0,7.12,0L65.57,59.07A7.69,7.69,0,0,0,69.1,53V23.53a7.83,7.83,0,0,0-3.53-6.11A36,36,0,0,1,61,15Z" style="fill: none;stroke: #323232;stroke-miterlimit: 10;stroke-width: 3px"/>
</svg>
